<svg width="16" height="16" viewBox="0 0 16 16" fill="none" xmlns="http://www.w3.org/2000/svg">
<path d="M5.98232 14.935L8.95066 13.675C9.00481 14.0399 8.93631 14.4125 8.75589 14.7342C8.57547 15.056 8.29335 15.3088 7.95377 15.4529C7.6142 15.5971 7.23638 15.6244 6.87958 15.5307C6.52279 15.4369 6.2072 15.2274 5.98232 14.935ZM10.509 0.0766524C12.2473 1.02665 13.5523 2.24582 14.4107 3.73249C15.269 5.21915 15.6732 6.95915 15.6265 8.93915C15.6226 9.10491 15.5531 9.26235 15.4331 9.37682C15.3132 9.4913 15.1527 9.55344 14.9869 9.54957C14.8211 9.5457 14.6637 9.47614 14.5492 9.3562C14.4348 9.23625 14.3726 9.07575 14.3765 8.90999C14.4182 7.14999 14.0665 5.63665 13.3282 4.35749C12.5898 3.07832 11.454 2.01749 9.90982 1.17415C9.76429 1.09459 9.65632 0.960467 9.60967 0.801295C9.56302 0.642124 9.58151 0.47094 9.66107 0.325402C9.74064 0.179865 9.87476 0.071895 10.0339 0.0252454C10.1931 -0.0214043 10.3643 -0.00291257 10.5098 0.0766524H10.509ZM2.88399 3.76082C4.03062 3.24881 5.33107 3.20115 6.5121 3.62788C7.69312 4.0546 8.66278 4.92248 9.21732 6.04915L9.29899 6.22415L10.3723 8.63332L11.7873 9.85832C11.8648 9.92498 11.9315 10.0033 12.009 10.1292L12.0582 10.2242C12.1137 10.3493 12.144 10.4841 12.1473 10.621C12.1507 10.7578 12.127 10.894 12.0777 11.0217C12.0284 11.1494 11.9544 11.2661 11.86 11.3652C11.7656 11.4643 11.6525 11.5438 11.5273 11.5992L2.92066 15.4067C2.76212 15.4767 2.58861 15.506 2.41586 15.4921C2.24311 15.4781 2.07657 15.4212 1.93134 15.3266C1.78611 15.2321 1.66678 15.1027 1.58415 14.9504C1.50153 14.798 1.45822 14.6275 1.45816 14.4542L1.45732 12.5017L0.422324 10.175C0.161909 9.59237 0.0189954 8.9641 0.00176817 8.32616C-0.015459 7.68822 0.0933389 7.05315 0.32193 6.45733C0.550522 5.8615 0.894415 5.31663 1.33391 4.85392C1.77341 4.39121 2.30071 4.01975 2.88399 3.76082ZM1.56399 9.66749L2.70732 12.2367V14.1342L10.7207 10.5883L9.34316 9.39665L8.16232 6.74415L8.09149 6.59249C7.67855 5.75824 6.95858 5.11633 6.08262 4.8014C5.20666 4.48647 4.24277 4.52299 3.39316 4.90332C2.95963 5.09531 2.56828 5.37101 2.24156 5.7146C1.91483 6.05819 1.65916 6.46291 1.48922 6.90555C1.31927 7.34818 1.23839 7.82001 1.25123 8.29397C1.26406 8.76793 1.37034 9.2347 1.56399 9.66749ZM10.3115 3.07749C11.1173 3.51665 11.7632 4.15582 12.2415 4.98499C12.7198 5.81415 12.9507 6.69332 12.9282 7.60999C12.9262 7.69206 12.9081 7.77295 12.8748 7.84802C12.8416 7.9231 12.7939 7.99089 12.7345 8.04753C12.6751 8.10418 12.6051 8.14856 12.5285 8.17815C12.4519 8.20774 12.3702 8.22196 12.2882 8.21999C12.2061 8.21802 12.1252 8.1999 12.0501 8.16667C11.975 8.13344 11.9073 8.08575 11.8506 8.02632C11.794 7.96689 11.7496 7.89689 11.72 7.8203C11.6904 7.74372 11.6762 7.66206 11.6782 7.57999C11.6948 6.89499 11.524 6.24249 11.159 5.60999C10.794 4.97665 10.314 4.50165 9.71316 4.17499C9.56762 4.09564 9.45956 3.96173 9.41276 3.80272C9.36595 3.6437 9.38423 3.47261 9.46357 3.32707C9.54292 3.18153 9.67683 3.07347 9.83584 3.02667C9.99486 2.97986 10.166 2.99814 10.3115 3.07749Z" fill="white"/>
</svg>
