<svg width="25" height="24" viewBox="0 0 25 24" fill="none" xmlns="http://www.w3.org/2000/svg">
<path d="M5 12.7H4.79884L4.65373 12.8393L0.5 16.8269V1.2C0.5 1.06997 0.573318 0.892723 0.736891 0.735694C0.899169 0.579906 1.09304 0.5 1.25 0.5H17.5C17.657 0.5 17.8508 0.579906 18.0131 0.735694C18.1767 0.892723 18.25 1.06997 18.25 1.2V11.6909C17.3714 11.8542 16.5049 12.1903 15.7233 12.7H5ZM19.25 18V14.9H20.75V18V18.5H21.25H24.5V19.9H21.25H20.75V20.4V23.5H19.25V20.4V19.9H18.75H15.5V18.5H18.75H19.25V18ZM21.75 11.7038V5.3H23.75C23.907 5.3 24.1008 5.37991 24.2631 5.53569C24.4267 5.69272 24.5 5.86997 24.5 6V12.8131C23.6996 12.3012 22.782 11.9191 21.75 11.7038ZM6.25 18.7C6.09304 18.7 5.89917 18.6201 5.73689 18.4643C5.57332 18.3073 5.5 18.13 5.5 18V16.1H12.6805C12.3153 16.9054 12.0797 17.7727 12.0169 18.7H6.25Z" stroke="#A641B7"/>
</svg>
