<svg width="13" height="18" viewBox="0 0 13 18" fill="none" xmlns="http://www.w3.org/2000/svg">
<path d="M6.32875 10C6.02965 10.0023 5.73991 10.1046 5.50576 10.2907C5.27161 10.4769 5.10653 10.736 5.03684 11.0269C4.96716 11.3178 4.99688 11.6237 5.12128 11.8957C5.24568 12.1677 5.45759 12.3902 5.7232 12.5278V14.1167H6.83431V12.5778C7.12116 12.4602 7.35833 12.2468 7.50535 11.9738C7.65237 11.7009 7.70012 11.3854 7.64046 11.0812C7.58079 10.777 7.41742 10.5029 7.1782 10.3057C6.93899 10.1086 6.63876 10.0005 6.32875 10Z" fill="white"/>
<path d="M10.5556 7.02222V4.64444C10.5794 3.43994 10.1252 2.27502 9.29224 1.4046C8.45931 0.534187 7.3155 0.0291477 6.11111 0C4.90672 0.0291477 3.76291 0.534187 2.92998 1.4046C2.09704 2.27502 1.64281 3.43994 1.66667 4.64444V7.02222H0V16.4667C0 16.7614 0.117063 17.044 0.325437 17.2523C0.533811 17.4607 0.816426 17.5778 1.11111 17.5778H11.1111C11.4058 17.5778 11.6884 17.4607 11.8968 17.2523C12.1052 17.044 12.2222 16.7614 12.2222 16.4667V7.02222H10.5556ZM2.77778 4.64444C2.75383 3.73458 3.09098 2.85221 3.71556 2.19015C4.34015 1.52809 5.20139 1.14016 6.11111 1.11111C7.02083 1.14016 7.88207 1.52809 8.50666 2.19015C9.13125 2.85221 9.4684 3.73458 9.44444 4.64444V7.02222H2.77778V4.64444ZM1.11111 16.4667V8.13333H11.1111V16.4667H1.11111Z" fill="white"/>
</svg>
