<svg width="99" height="92" viewBox="0 0 99 92" fill="none" xmlns="http://www.w3.org/2000/svg">
<path d="M0.369774 53.8545H0.0742188V57.8279H0.369774V53.8545Z" fill="#A641B7"/>
<path d="M0.369774 59.0098H0.0742188V60.6519H0.369774V59.0098Z" fill="#A641B7"/>
<path d="M49.4393 39.3369H1.10742V89.816C1.10742 90.5791 1.72602 91.1977 2.48885 91.1977H49.439L49.4393 39.3369Z" fill="#A641B7"/>
<path opacity="0.2" d="M49.4393 39.3369H1.10742V43.0151H28.9144L29.8366 91.1977L30.4824 43.0151H49.4393V39.3369Z" fill="#2B0431"/>
<path d="M49.4399 41.9638H0.68953C0.308855 41.9638 0 41.6553 0 41.2743V32.1446C0 31.7639 0.30856 31.4551 0.68953 31.4551H49.4399V41.9638Z" fill="#A641B7"/>
<path d="M19.7185 91.1971L19.2148 31.4551H29.7236L30.2272 91.1971H19.7185Z" fill="#2B0431"/>
<path d="M49.4398 39.3359H69.8573V89.815C69.8573 90.5781 69.2387 91.1967 68.4756 91.1967H49.4395V39.3359H49.4398Z" fill="#A641B7"/>
<path opacity="0.2" d="M49.4398 39.3359H69.8573V89.815C69.8573 90.5781 69.2387 91.1967 68.4756 91.1967H49.4395V39.3359H49.4398Z" fill="#42054C"/>
<path opacity="0.2" d="M49.4395 39.3369H69.857V43.0151H58.4619L56.9132 91.1977L57.0825 43.0151H49.4395V39.3369Z" fill="#2B0431"/>
<path d="M49.4395 41.9638H70.2758C70.6565 41.9638 70.9653 41.6553 70.9653 41.2743V32.1446C70.9653 31.7639 70.6568 31.4551 70.2758 31.4551H49.4395V41.9638Z" fill="#A641B7"/>
<path opacity="0.2" d="M49.4395 41.9638H70.2758C70.6565 41.9638 70.9653 41.6553 70.9653 41.2743V32.1446C70.9653 31.7639 70.6568 31.4551 70.2758 31.4551H49.4395V41.9638Z" fill="#42054C"/>
<path d="M56.9121 91.1971L57.7935 31.4551H64.353L63.4714 91.1971H56.9121Z" fill="#2B0431"/>
<path opacity="0.2" d="M56.9121 91.1971L57.7935 31.4551H64.353L63.4714 91.1971H56.9121Z" fill="#2B0431"/>
<path d="M60.3385 11.6323L60.3509 11.6172H51.7426L51.7399 11.6204C51.4254 11.6181 50.9608 11.7384 50.3156 12.0088C41.5968 15.661 37.3594 25.2361 35.4844 31.4549H44.2807C44.2807 31.4549 65.0955 11.0382 60.3385 11.6323Z" fill="#2B0431"/>
<path opacity="0.5" d="M44.2812 31.4546C44.2812 23.3762 50.3936 15.661 59.1122 12.0088C67.8311 8.35634 44.2812 31.4546 44.2812 31.4546Z" fill="#2B0431"/>
<path d="M62.5838 16.7378L62.5974 16.7266H56.2057L56.2027 16.7289C55.9698 16.7272 55.5904 16.8164 55.0341 17.0171C47.5134 19.7288 41.6221 26.8381 38.4473 31.4556H44.9784C44.9784 31.4556 66.2859 16.2971 62.5838 16.7378Z" fill="#2B0431"/>
<path opacity="0.5" d="M44.9785 31.4558C48.0538 23.4758 54.0447 19.7293 61.5651 17.0173C69.0858 14.3056 44.9785 31.4558 44.9785 31.4558Z" fill="#2B0431"/>
<path d="M19.6147 9.10113L19.602 9.08398H10.9936L10.9963 9.08783C10.6777 9.08517 10.412 9.22083 10.2131 9.52554C7.52323 13.6444 19.091 24.4419 27.4812 31.4549H36.2775C36.2775 31.4549 23.3913 8.43169 19.6147 9.10113Z" fill="#2B0431"/>
<path opacity="0.5" d="M36.2781 31.4549C27.8878 24.442 16.3201 13.6442 19.01 9.52561C21.6998 5.40675 36.2781 31.4549 36.2781 31.4549Z" fill="#2B0431"/>
<path d="M28.6002 14.8574L28.5943 14.8447H22.2027L22.2038 14.8474C21.968 14.8453 21.7425 14.9461 21.5315 15.1725C18.6805 18.2306 25.032 26.2478 29.8082 31.4549H36.3394C36.3394 31.4549 31.5434 14.36 28.6002 14.8574Z" fill="#2B0431"/>
<path opacity="0.5" d="M36.3395 31.455C31.563 26.2479 25.2118 18.2307 28.0627 15.1726C30.9134 12.1145 36.3395 31.455 36.3395 31.455Z" fill="#2B0431"/>
<path d="M91.1604 86.8676L93.4181 86.139L92.332 80.7168L90.0742 81.4453L91.1604 86.8676Z" fill="#FF8B7B"/>
<path d="M73.252 88.775H75.6244L76.2557 83.2812H73.8833L73.252 88.775Z" fill="#FF8B7B"/>
<path d="M75.8503 88.5H72.958C72.8611 88.5 72.7798 88.5674 72.7626 88.662L72.3805 90.7707C72.3409 90.9895 72.5212 91.1963 72.7452 91.1925C73.675 91.1765 74.3518 91.1219 75.524 91.1219C76.2452 91.1219 78.4228 91.1969 79.4185 91.1969C80.3924 91.1969 80.5041 90.2124 80.0927 90.1232C78.2484 89.7233 76.8484 89.1718 76.2416 88.646C76.132 88.5508 75.9922 88.5 75.8503 88.5Z" fill="#2B0431"/>
<path d="M93.3179 85.8827L90.8524 86.6783C90.7602 86.7082 90.7008 86.798 90.7099 86.8947L90.9115 89.0455C90.9325 89.2683 91.1538 89.4146 91.3657 89.3422C92.2503 89.0401 93.5186 88.5732 94.6367 88.2126C95.9436 87.7908 96.7194 87.5765 98.2522 87.0818C99.179 86.7827 99.1341 85.7627 98.7186 85.8029C96.8276 85.9865 95.7485 86.3317 93.9185 85.8833C93.7198 85.8342 93.513 85.8198 93.3179 85.8827Z" fill="#2B0431"/>
<path d="M81.4261 16.7891C81.7279 17.4529 82.0509 18.1708 82.3825 18.8553C82.7206 19.5427 83.0517 20.2338 83.4045 20.9097C83.7533 21.5868 84.1094 22.2589 84.4875 22.9082C84.8534 23.5688 85.2503 24.1936 85.6552 24.8033C85.8624 25.0953 86.0639 25.4042 86.2809 25.6743L86.6042 26.0858C86.6757 26.1786 86.7375 26.2489 86.8014 26.311C86.9279 26.433 87.031 26.5099 87.172 26.5619C87.3115 26.6112 87.5027 26.6381 87.7465 26.6124C88.2342 26.5589 88.8561 26.3045 89.4534 25.9593C89.7537 25.7858 90.0548 25.5898 90.3525 25.3806C90.6439 25.1748 90.9548 24.9357 91.2137 24.7297L92.5871 25.8638C92.3342 26.2598 92.093 26.5876 91.8113 26.9254C91.5341 27.2579 91.235 27.5777 90.9048 27.8801C90.5771 28.186 90.2156 28.4697 89.8116 28.7307C89.4079 28.9928 88.9533 29.2216 88.4278 29.3856C87.9061 29.5505 87.2923 29.6368 86.6524 29.5494C86.0137 29.4684 85.378 29.2074 84.8776 28.8498C84.627 28.6727 84.3994 28.4724 84.2046 28.2735L83.7571 27.7849C83.4566 27.4583 83.1982 27.1226 82.9257 26.7877C81.8972 25.4332 81.0241 24.0322 80.235 22.5997C79.8434 21.8818 79.4669 21.1597 79.1169 20.425C78.764 19.6852 78.428 18.9667 78.1094 18.1773L81.4261 16.7891Z" fill="#FF8B7B"/>
<path d="M77.0853 17.0004C76.6606 19.2283 79.4279 22.4102 79.4279 22.4102L83.4918 20.6614C83.4918 20.6614 83.0709 18.1099 81.4474 16.2692C79.4572 14.0126 77.5497 14.5653 77.0853 17.0004Z" fill="#601E6B"/>
<path opacity="0.2" d="M79.2792 17.7877C78.1709 17.3917 77.3522 17.5215 77.0566 17.7993C77.2576 19.9154 79.427 22.4099 79.427 22.4099L82.3057 21.1716C82.087 20.1767 81.0141 18.4055 79.2792 17.7877Z" fill="#2B0431"/>
<path d="M90.875 25.2341L92.171 22.499L93.9916 24.4033C93.9916 24.4033 93.475 26.5842 91.7696 26.3075L90.875 25.2341Z" fill="#FF8B7B"/>
<path d="M93.2146 21.2139L94.622 22.9603L93.9925 24.4029L92.1719 22.4986L93.2146 21.2139Z" fill="#FF8B7B"/>
<path opacity="0.2" d="M92.3309 80.7188L92.8913 83.5135L90.6326 84.2424L90.0723 81.4476L92.3309 80.7188Z" fill="#2B0431"/>
<path opacity="0.2" d="M73.8832 83.2822H76.2565L75.9299 86.1139H73.5566L73.8832 83.2822Z" fill="#2B0431"/>
<path d="M66.4395 17.035C69.8599 25.755 70.2778 35.3248 70.6957 37.2288C72.5294 36.914 79.4347 35.7152 83.1986 35.0612C83.4912 23.2735 80.5392 16.7586 79.7474 15.2315C79.6324 15.0101 79.4131 14.8662 79.1643 14.8499C78.8176 14.8272 78.2664 14.7994 77.6173 14.7961C77.2683 14.7947 76.8929 14.8 76.5031 14.8174C76.2876 14.8257 76.0692 14.8399 75.8482 14.857C74.4212 14.9732 72.1165 15.4268 70.5326 15.7797C70.201 15.8545 69.864 15.9382 69.5392 16.0245C69.2378 16.1069 68.9422 16.1917 68.6644 16.2763C67.4041 16.6584 66.4395 17.035 66.4395 17.035Z" fill="#601E6B"/>
<path opacity="0.2" d="M67.6523 20.5421C68.0661 21.9076 68.4208 23.2671 68.7193 24.5853C69.1124 22.2002 69.2868 19.75 69.2868 19.75L67.6523 20.5421Z" fill="#2B0431"/>
<path d="M70.0488 9.74023C70.6807 11.3921 71.5588 14.4673 70.5604 15.8157C71.6501 16.5782 73.0502 17.435 75.0931 17.1539C77.1359 16.8732 76.5389 15.5378 75.8748 14.8938C73.889 14.7691 73.6927 13.346 73.7944 11.9596L70.0488 9.74023Z" fill="#FF8B7B"/>
<path d="M76.4222 17.7187C76.4222 17.7187 78.0025 16.2908 76.2703 14.7965C76.0359 14.7486 75.5994 14.8677 75.5994 14.8677C75.5994 14.8677 77.5429 16.5302 75.3304 17.1151C72.5534 16.952 70.5483 15.6622 70.5483 15.6622C70.5483 15.6622 70.246 15.7284 70.0488 15.8638C70.6591 17.0847 74.7969 18.0432 74.7969 18.0432C74.7969 18.0432 74.8454 17.7589 74.9935 17.4902C75.125 17.8718 75.5911 19.1225 75.944 20.9958C76.1899 20.9804 76.7674 20.8102 76.7674 20.8102C76.7674 20.8102 76.3164 18.4969 75.8905 17.3265C76.2307 17.5085 76.4222 17.7187 76.4222 17.7187Z" fill="white"/>
<path opacity="0.2" d="M71.5759 10.6465L73.7926 11.959C73.7675 12.2874 73.7607 12.617 73.7923 12.9308C73.0454 12.9518 71.906 12.3258 71.6965 11.5766C71.5922 11.2027 71.5446 10.8342 71.5759 10.6465Z" fill="#2B0431"/>
<path d="M74.4775 7.41159C76.2139 6.74895 76.0348 2.3038 73.3586 2.96053C71.5524 3.40386 71.738 3.95004 72.067 5.11158C72.3959 6.27311 73.3772 7.83157 74.4775 7.41159Z" fill="#2B0431"/>
<path d="M69.3978 7.20214C69.9416 9.49298 70.1435 10.8614 71.5193 11.8468C73.5885 13.3293 76.2627 11.7732 76.4143 9.36589C76.5505 7.19918 75.6385 3.81714 73.2119 3.28869C70.8215 2.76851 68.854 4.91129 69.3978 7.20214Z" fill="#FF8B7B"/>
<path d="M69.7361 8.86535C71.4725 8.20272 70.8066 3.84801 68.1301 4.50473C66.3236 4.94806 66.6357 5.97866 67.145 7.0004C67.6832 8.08095 68.6358 9.28534 69.7361 8.86535Z" fill="#2B0431"/>
<path d="M73.7017 1.15564C73.248 0.000612278 70.8936 -0.833444 70.463 1.41425C68.4843 1.27977 63.7669 5.1149 69.3671 5.09983C72.1379 5.79793 76.2387 4.27198 76.3002 2.66859C76.3617 1.0652 74.3788 0.483254 73.7017 1.15564Z" fill="#2B0431"/>
<path d="M68.8098 9.41696C69.1355 9.90906 69.6454 10.2061 70.1056 10.2968C70.798 10.4334 71.0641 9.7796 70.8043 9.13707C70.5708 8.55866 69.9288 7.79081 69.2662 7.9448C68.6136 8.09642 68.4372 8.85452 68.8098 9.41696Z" fill="#FF8B7B"/>
<path d="M93.5696 82.7189L89.7463 83.9508C89.7463 83.9508 85.9417 70.1687 84.5008 62.9182C84.0622 60.7125 82.8454 57.8867 81.7649 54.6432C80.4015 50.5566 78.7656 46.1546 77.443 42.7117C76.048 39.0858 75.0215 36.4808 75.0215 36.4808L83.1977 35.0615C83.1977 35.0615 90.2476 54.1562 91.2291 61.3299C92.2509 68.7888 93.5696 82.7189 93.5696 82.7189Z" fill="#2B0431"/>
<path opacity="0.2" d="M81.7653 54.643C80.4019 50.5563 78.766 46.1543 77.4434 42.7114L78.1128 40.7734C80.4161 43.0031 81.7422 50.4993 81.7653 54.643Z" fill="#2B0431"/>
<path d="M79.3014 35.7373C79.3014 35.7373 79.9667 56.1646 79.6711 63.1093C79.3478 70.7145 77.0253 85.5658 77.0253 85.5658H72.6801C72.6801 85.5658 73.6471 72.0959 73.5549 64.6745C73.45 56.221 70.6934 37.2287 70.6934 37.2287L79.3014 35.7373Z" fill="#2B0431"/>
<path d="M77.5463 85.6601H72.4297V84.1315L78.1493 84.0322L77.5463 85.6601Z" fill="#2B0431"/>
<path d="M94.0795 82.6522L89.5238 84.1223L89.0488 82.6504L94.1164 80.9297L94.0795 82.6522Z" fill="#2B0431"/>
<path d="M73.0234 7.24069C73.0562 7.42925 73.1824 7.56462 73.3057 7.54334C73.4289 7.52206 73.5022 7.35181 73.4697 7.16325C73.4369 6.97469 73.3107 6.83932 73.1875 6.8606C73.0642 6.88218 72.9906 7.05242 73.0234 7.24069Z" fill="#2B0431"/>
<path d="M75.1542 6.87057C75.187 7.05913 75.3132 7.1945 75.4365 7.17322C75.5597 7.15194 75.633 6.9817 75.6005 6.79313C75.5677 6.60457 75.4415 6.4692 75.3182 6.49048C75.195 6.51176 75.1217 6.68201 75.1542 6.87057Z" fill="#2B0431"/>
<path d="M74.4922 7.08203C74.4922 7.08203 75.1096 8.09519 75.6726 8.53823C75.393 8.90738 74.8013 8.86364 74.8013 8.86364L74.4922 7.08203Z" fill="#FF5652"/>
<path d="M74.0953 9.50582C73.3615 9.5336 72.9424 9.09352 72.9232 9.07284C72.9022 9.05008 72.9034 9.01461 72.9261 8.99363C72.9489 8.97235 72.9843 8.97382 73.0056 8.99629C73.0104 9.00161 73.4995 9.51203 74.3247 9.36898C74.3551 9.36396 74.3844 9.38405 74.3897 9.41479C74.395 9.44523 74.3746 9.47449 74.3439 9.47981C74.2573 9.49459 74.1745 9.50287 74.0953 9.50582Z" fill="#2B0431"/>
<path d="M72.2474 6.66626C72.2288 6.66685 72.2096 6.66301 72.1918 6.65385C72.1366 6.62547 72.115 6.55749 72.1433 6.50252C72.4283 5.94983 72.9437 5.89131 72.9656 5.88924C73.0274 5.88304 73.0823 5.92796 73.0888 5.98973C73.095 6.05121 73.0504 6.10618 72.9889 6.11298C72.9721 6.11505 72.5704 6.1647 72.3431 6.60567C72.3239 6.64291 72.2864 6.66478 72.2474 6.66626Z" fill="#2B0431"/>
<path d="M75.9452 5.97819C75.9088 5.97966 75.8725 5.96341 75.8497 5.93149C75.5598 5.52894 75.1555 5.5387 75.1383 5.53929C75.0766 5.54165 75.0243 5.49348 75.0216 5.4317C75.0189 5.36993 75.0665 5.31762 75.1283 5.31466C75.1507 5.31407 75.6689 5.29545 76.0318 5.79997C76.0682 5.85021 76.0566 5.92055 76.0064 5.95691C75.9878 5.9705 75.9665 5.9773 75.9452 5.97819Z" fill="#2B0431"/>
<path d="M76.6537 88.9156C76.4344 88.9156 76.1959 88.8701 76.0295 88.8302C76.0074 88.8248 75.9899 88.8068 75.9855 88.7846C75.981 88.7622 75.9902 88.74 76.0088 88.7279C76.0931 88.6738 76.839 88.2039 77.1068 88.3386C77.1485 88.3596 77.1999 88.404 77.2097 88.4977C77.2227 88.6233 77.1878 88.7232 77.1056 88.7947C77.0019 88.8848 76.8343 88.9156 76.6537 88.9156ZM76.1891 88.7515C76.5952 88.8322 76.9044 88.8177 77.0297 88.7087C77.0847 88.6608 77.1068 88.5943 77.0977 88.5047C77.0932 88.461 77.0749 88.4465 77.0595 88.4388C76.9203 88.3688 76.4926 88.5715 76.1891 88.7515Z" fill="#601E6B"/>
<path d="M76.0429 88.8319C76.0323 88.8319 76.0217 88.829 76.0119 88.8228C75.9942 88.8115 75.9835 88.7917 75.9844 88.7713C75.9856 88.7424 76.0143 88.0579 76.2806 87.8326C76.35 87.7741 76.4295 87.7496 76.517 87.7602C76.6521 87.7768 76.6908 87.8595 76.7017 87.9074C76.7626 88.1719 76.3092 88.6915 76.0695 88.8248C76.0613 88.8299 76.0521 88.8319 76.0429 88.8319ZM76.4824 87.8705C76.4363 87.8705 76.3944 87.8867 76.3553 87.9198C76.1845 88.0641 76.1251 88.4631 76.1056 88.6632C76.342 88.4778 76.6281 88.085 76.5924 87.929C76.5891 87.9148 76.5814 87.8814 76.5082 87.8722C76.4993 87.8708 76.4907 87.8705 76.4824 87.8705Z" fill="#601E6B"/>
<path d="M93.6409 86.1233C93.6202 86.123 93.601 86.1109 93.5916 86.0917C93.5812 86.0701 93.5854 86.0444 93.6022 86.0276C93.6876 85.9416 94.4469 85.1885 94.7702 85.2529C94.8326 85.2653 94.879 85.3047 94.9044 85.3667C94.947 85.4708 94.9414 85.5692 94.8882 85.659C94.7114 85.9581 94.0355 86.0781 93.6483 86.1227C93.6462 86.123 93.6436 86.1233 93.6409 86.1233ZM94.7265 85.3608C94.5373 85.3567 94.1058 85.7034 93.8026 85.9895C94.3278 85.9114 94.6925 85.7699 94.7918 85.602C94.8267 85.5429 94.8296 85.4799 94.8007 85.4093C94.7894 85.3821 94.7741 85.3682 94.7487 85.3632C94.7416 85.3617 94.7342 85.3608 94.7265 85.3608Z" fill="#601E6B"/>
<path d="M93.641 86.1236C93.6357 86.1236 93.6303 86.1227 93.625 86.121C93.6061 86.1148 93.5916 86.0991 93.5872 86.0796C93.5813 86.053 93.4459 85.4252 93.6572 85.0969C93.7217 84.9967 93.8115 84.9337 93.9241 84.9095C94.076 84.877 94.1425 84.9379 94.1715 84.9946C94.295 85.2367 93.9129 85.899 93.6797 86.1091C93.6691 86.1189 93.6552 86.1239 93.641 86.1236ZM94.006 85.0126C93.9906 85.0123 93.9714 85.0141 93.9478 85.0191C93.8641 85.0372 93.8 85.0824 93.7518 85.1574C93.6129 85.3732 93.6498 85.763 93.6782 85.9498C93.9025 85.693 94.1455 85.1908 94.0713 85.0457C94.0669 85.0366 94.0553 85.0135 94.006 85.0126Z" fill="#601E6B"/>
<path d="M69.3249 19.9752C69.0374 20.6559 68.7252 21.3889 68.4418 22.105C68.1607 22.8282 67.8752 23.5485 67.6116 24.2744C67.3477 24.9982 67.0894 25.7247 66.8644 26.4506C66.6262 27.1753 66.4276 27.9008 66.2547 28.6184C66.174 28.9752 66.0883 29.334 66.036 29.6813L65.9896 29.9443L65.9778 30.0102C65.9772 30.012 65.9778 29.9972 65.9763 29.9913C65.9716 29.9783 65.9739 29.9526 65.9662 29.9334C65.9538 29.8397 65.8885 29.7226 65.851 29.6946C65.7608 29.6396 65.8918 29.8078 66.1226 29.9213C66.3519 30.0433 66.6552 30.1666 66.98 30.2676C68.3038 30.6723 69.8968 30.8756 71.4115 31.0648L71.5055 32.8437C70.66 33.0033 69.8466 33.0952 68.9978 33.1354C68.1522 33.1738 67.2945 33.1676 66.3859 33.0379C65.9299 32.9702 65.4591 32.8806 64.9507 32.6933C64.696 32.5984 64.4308 32.4837 64.1486 32.3102C63.8687 32.1335 63.5663 31.9097 63.2897 31.5498C63.0134 31.2007 62.8011 30.6968 62.7533 30.2047C62.7438 30.0856 62.7343 29.9603 62.74 29.8474L62.7476 29.6789L62.7556 29.5961L62.7881 29.2648C62.8242 28.8171 62.8925 28.3912 62.9578 27.9617C63.2498 26.262 63.7055 24.6601 64.2228 23.0865C64.4917 22.3051 64.7663 21.5278 65.0743 20.7647C65.384 19.9959 65.6866 19.2526 66.0558 18.4756L69.3249 19.9752Z" fill="#FF8B7B"/>
<path d="M66.4382 17.0352C65.2096 17.6999 64.3555 21.6961 64.3555 21.6961L67.9908 23.9293C67.9908 23.9293 68.9315 22.0838 69.6246 20.5632C70.9484 17.6576 68.8547 15.7276 66.4382 17.0352Z" fill="#601E6B"/>
<path d="M71.1088 31.0246L73.5002 30.9209L72.4394 33.1857C72.4394 33.1857 70.187 33.0516 70.484 31.9722L71.1088 31.0246Z" fill="#FF8B7B"/>
<path d="M75.074 32.49L73.8838 33.9728L72.4395 33.1857L73.5002 30.9209L75.074 32.49Z" fill="#FF8B7B"/>
</svg>
