<svg width="129" height="28" viewBox="0 0 129 28" fill="none" xmlns="http://www.w3.org/2000/svg">
<rect width="129" height="28" fill="#711D80"/>
<path d="M10.44 15.481H11.43C11.507 16.515 12.31 17.197 13.487 17.197C14.521 17.197 15.258 16.724 15.258 15.888C15.258 14.931 14.312 14.733 13.146 14.535C11.903 14.326 10.627 13.919 10.627 12.423C10.627 11.114 11.694 10.234 13.256 10.234C14.972 10.234 16.028 11.191 16.116 12.577H15.126C15.016 11.686 14.301 11.103 13.256 11.103C12.255 11.103 11.584 11.543 11.584 12.368C11.584 13.292 12.519 13.479 13.674 13.677C14.928 13.886 16.215 14.304 16.215 15.8C16.215 17.131 15.093 18.066 13.476 18.066C11.595 18.066 10.495 16.999 10.44 15.481ZM20.0476 12.324C21.3016 12.324 22.3246 13.017 22.3246 14.876V18H21.4226V14.931C21.4226 13.765 20.8616 13.149 19.8936 13.149C18.8486 13.149 18.1996 13.93 18.1996 15.195V18H17.2976V10.3H18.1996V13.314C18.5296 12.786 19.1016 12.324 20.0476 12.324ZM28.4354 17.175H28.7214V18H28.2264C27.4784 18 27.2254 17.681 27.2144 17.131C26.8624 17.637 26.3014 18.066 25.3334 18.066C24.1014 18.066 23.2654 17.45 23.2654 16.427C23.2654 15.305 24.0464 14.678 25.5204 14.678H27.1704V14.293C27.1704 13.567 26.6534 13.127 25.7734 13.127C24.9814 13.127 24.4534 13.501 24.3434 14.073H23.4414C23.5734 12.973 24.4644 12.324 25.8174 12.324C27.2474 12.324 28.0724 13.039 28.0724 14.348V16.801C28.0724 17.098 28.1824 17.175 28.4354 17.175ZM27.1704 15.712V15.437H25.4324C24.6294 15.437 24.1784 15.734 24.1784 16.372C24.1784 16.922 24.6514 17.296 25.3994 17.296C26.5214 17.296 27.1704 16.647 27.1704 15.712ZM32.0108 12.39H32.2638V13.27H31.8128C30.6358 13.27 30.3168 14.249 30.3168 15.14V18H29.4148V12.39H30.1958L30.3168 13.237C30.5808 12.808 31.0098 12.39 32.0108 12.39ZM35.3084 18.066C33.6254 18.066 32.5254 16.911 32.5254 15.195C32.5254 13.49 33.6034 12.324 35.1874 12.324C36.7714 12.324 37.8054 13.325 37.8494 14.986C37.8494 15.107 37.8384 15.239 37.8274 15.371H33.4714V15.448C33.5044 16.515 34.1754 17.263 35.2424 17.263C36.0344 17.263 36.6504 16.845 36.8374 16.119H37.7504C37.5304 17.241 36.6064 18.066 35.3084 18.066ZM33.5264 14.623H36.8814C36.7934 13.655 36.1334 13.116 35.1984 13.116C34.3734 13.116 33.6144 13.71 33.5264 14.623ZM44.3536 12.39H44.6066V13.27H44.1556C42.9786 13.27 42.6596 14.249 42.6596 15.14V18H41.7576V12.39H42.5386L42.6596 13.237C42.9236 12.808 43.3526 12.39 44.3536 12.39ZM47.6512 18.066C45.9682 18.066 44.8682 16.911 44.8682 15.195C44.8682 13.49 45.9462 12.324 47.5302 12.324C49.1142 12.324 50.1482 13.325 50.1922 14.986C50.1922 15.107 50.1812 15.239 50.1702 15.371H45.8142V15.448C45.8472 16.515 46.5182 17.263 47.5852 17.263C48.3772 17.263 48.9932 16.845 49.1802 16.119H50.0932C49.8732 17.241 48.9492 18.066 47.6512 18.066ZM45.8692 14.623H49.2242C49.1362 13.655 48.4762 13.116 47.5412 13.116C46.7162 13.116 45.9572 13.71 45.8692 14.623ZM50.563 13.215V12.39H51.575V11.763C51.575 10.773 51.993 10.3 53.038 10.3H54.061V11.125H53.093C52.642 11.125 52.477 11.312 52.477 11.741V12.39H54.061V13.215H52.477V18H51.575V13.215H50.563ZM57.0399 18.066C55.3569 18.066 54.2569 16.911 54.2569 15.195C54.2569 13.49 55.3349 12.324 56.9189 12.324C58.5029 12.324 59.5369 13.325 59.5809 14.986C59.5809 15.107 59.5699 15.239 59.5589 15.371H55.2029V15.448C55.2359 16.515 55.9069 17.263 56.9739 17.263C57.7659 17.263 58.3819 16.845 58.5689 16.119H59.4819C59.2619 17.241 58.3379 18.066 57.0399 18.066ZM55.2579 14.623H58.6129C58.5249 13.655 57.8649 13.116 56.9299 13.116C56.1049 13.116 55.3459 13.71 55.2579 14.623ZM63.2061 12.39H63.4591V13.27H63.0081C61.8311 13.27 61.5121 14.249 61.5121 15.14V18H60.6101V12.39H61.3911L61.5121 13.237C61.7761 12.808 62.2051 12.39 63.2061 12.39ZM66.837 12.39H67.09V13.27H66.639C65.462 13.27 65.143 14.249 65.143 15.14V18H64.241V12.39H65.022L65.143 13.237C65.407 12.808 65.836 12.39 66.837 12.39ZM72.6395 17.175H72.9255V18H72.4305C71.6825 18 71.4295 17.681 71.4185 17.131C71.0665 17.637 70.5055 18.066 69.5375 18.066C68.3055 18.066 67.4695 17.45 67.4695 16.427C67.4695 15.305 68.2505 14.678 69.7245 14.678H71.3745V14.293C71.3745 13.567 70.8575 13.127 69.9775 13.127C69.1855 13.127 68.6575 13.501 68.5475 14.073H67.6455C67.7775 12.973 68.6685 12.324 70.0215 12.324C71.4515 12.324 72.2765 13.039 72.2765 14.348V16.801C72.2765 17.098 72.3865 17.175 72.6395 17.175ZM71.3745 15.712V15.437H69.6365C68.8335 15.437 68.3825 15.734 68.3825 16.372C68.3825 16.922 68.8555 17.296 69.6035 17.296C70.7255 17.296 71.3745 16.647 71.3745 15.712ZM73.6189 18V10.3H74.5209V18H73.6189ZM78.6355 18V10.3H79.5375V18H78.6355ZM81.2352 11.444C80.9052 11.444 80.6522 11.202 80.6522 10.861C80.6522 10.52 80.9052 10.278 81.2352 10.278C81.5652 10.278 81.8182 10.52 81.8182 10.861C81.8182 11.202 81.5652 11.444 81.2352 11.444ZM80.7732 18V12.39H81.6752V18H80.7732ZM85.6609 12.324C86.9259 12.324 87.9269 13.017 87.9269 14.876V18H87.0249V14.931C87.0249 13.765 86.4859 13.149 85.5069 13.149C84.4509 13.149 83.8129 13.93 83.8129 15.195V18H82.9109V12.39H83.6919L83.8129 13.149C84.1429 12.72 84.7149 12.324 85.6609 12.324ZM89.0769 18V10.3H89.9789V15.371L92.7949 12.39H93.9059L91.7169 14.711L94.0599 18H92.9709L91.1119 15.36L89.9789 16.526V18H89.0769Z" fill="#F7E0FB"/>
<path d="M113.207 11.7935C115.074 13.6625 115.048 16.659 113.218 18.4994C113.214 18.5031 113.21 18.5072 113.207 18.511L111.107 20.611C109.254 22.4631 106.241 22.4629 104.389 20.611C102.537 18.7591 102.537 15.7453 104.389 13.8935L105.549 12.7339C105.856 12.4264 106.386 12.6308 106.402 13.0653C106.422 13.6192 106.521 14.1756 106.704 14.7129C106.767 14.8948 106.722 15.0961 106.586 15.232L106.177 15.641C105.301 16.5168 105.274 17.9428 106.141 18.8272C107.017 19.7203 108.456 19.7256 109.339 18.8431L111.439 16.7435C112.32 15.8625 112.316 14.4386 111.439 13.5613C111.323 13.4458 111.207 13.3562 111.116 13.2935C111.051 13.2493 110.998 13.1907 110.96 13.1223C110.923 13.0539 110.902 12.9776 110.899 12.8996C110.886 12.5693 111.003 12.2291 111.264 11.9681L111.922 11.3102C112.095 11.1376 112.365 11.1164 112.565 11.2561C112.794 11.4161 113.009 11.5959 113.207 11.7935ZM117.611 7.38904C115.759 5.53711 112.746 5.53686 110.893 7.38904L108.793 9.48904C108.79 9.49279 108.786 9.49685 108.782 9.5006C106.952 11.341 106.926 14.3375 108.793 16.2065C108.991 16.4041 109.206 16.5839 109.435 16.7439C109.635 16.8835 109.905 16.8623 110.078 16.6898L110.736 16.0318C110.997 15.7709 111.114 15.4306 111.101 15.1004C111.098 15.0224 111.077 14.9461 111.04 14.8777C111.002 14.8093 110.949 14.7507 110.884 14.7065C110.793 14.6438 110.677 14.5541 110.561 14.4387C109.684 13.5614 109.68 12.1375 110.561 11.2565L112.661 9.15682C113.544 8.27435 114.983 8.27967 115.859 9.17276C116.726 10.0571 116.699 11.4832 115.823 12.359L115.414 12.768C115.278 12.9039 115.233 13.1052 115.296 13.2871C115.479 13.8244 115.578 14.3808 115.598 14.9346C115.614 15.3692 116.144 15.5736 116.451 15.2661L117.611 14.1065C119.463 12.2547 119.463 9.24092 117.611 7.38904Z" fill="#F7E0FB"/>
</svg>
