<svg width="17" height="17" viewBox="0 0 17 17" fill="none" xmlns="http://www.w3.org/2000/svg">
<path d="M12.1115 0.0477556C12.2258 0.0949993 12.3235 0.175091 12.3923 0.277891C12.461 0.380692 12.4978 0.501581 12.4978 0.625256V3.75026H15.6228C15.7466 3.75003 15.8676 3.78657 15.9706 3.85523C16.0736 3.92389 16.1539 4.02158 16.2013 4.13593C16.2487 4.25027 16.261 4.37611 16.2368 4.49749C16.2126 4.61888 16.1529 4.73034 16.0653 4.81776L13.5653 7.31776C13.5071 7.37576 13.4381 7.42173 13.3622 7.45305C13.2863 7.48436 13.2049 7.5004 13.1228 7.50026H9.63152L8.70652 8.42651C8.75596 8.61182 8.76213 8.80601 8.72456 8.99408C8.687 9.18216 8.6067 9.35908 8.48988 9.51118C8.37305 9.66329 8.22283 9.7865 8.0508 9.8713C7.87878 9.9561 7.68956 10.0002 7.49777 10.0003C7.16625 10.0003 6.84831 9.86856 6.61389 9.63414C6.37947 9.39972 6.24777 9.08178 6.24777 8.75026L6.24902 8.69276C6.2576 8.50603 6.30794 8.32361 6.39634 8.15892C6.48474 7.99422 6.60895 7.85145 6.75983 7.74111C6.9107 7.63077 7.08441 7.55567 7.26815 7.52135C7.45189 7.48702 7.64099 7.49433 7.82152 7.54276L8.74777 6.61651V3.12526C8.74763 3.04312 8.76367 2.96177 8.79498 2.88584C8.8263 2.80992 8.87227 2.7409 8.93027 2.68276L11.4303 0.182756C11.5177 0.0954028 11.6292 0.035952 11.7504 0.011922C11.8717 -0.012108 11.9973 0.00036221 12.1115 0.0477556ZM12.864 6.25026L14.114 5.00026H11.8728C11.707 5.00026 11.548 4.93441 11.4308 4.8172C11.3136 4.69999 11.2478 4.54102 11.2478 4.37526V2.13401L9.99777 3.38401V6.25026H12.864ZM14.929 7.72026C15.1447 9.27668 14.8661 10.8615 14.1325 12.2511C13.3989 13.6406 12.2475 14.7647 10.8406 15.4646C9.43383 16.1645 7.84272 16.4048 6.29194 16.1517C4.74116 15.8986 3.30904 15.1649 2.19774 14.054C1.08645 12.9432 0.352118 11.5113 0.0984143 9.96063C-0.155289 8.40995 0.0844486 6.81875 0.783785 5.41166C1.48312 4.00456 2.60673 2.85265 3.996 2.11854C5.38527 1.38443 6.97001 1.10519 8.52652 1.32026L8.04777 1.79901C7.84963 1.99716 7.69843 2.23721 7.60528 2.50151L7.49777 2.50026C6.2571 2.50044 5.04456 2.86987 4.01455 3.5615C2.98454 4.25313 2.18368 5.23566 1.71396 6.38398C1.24423 7.53229 1.1269 8.79443 1.3769 10.0097C1.6269 11.2249 2.23292 12.3382 3.11778 13.2078C4.00265 14.0775 5.12632 14.6641 6.34569 14.893C7.56507 15.1219 8.82498 14.9826 9.96497 14.4931C11.105 14.0035 12.0735 13.1857 12.7471 12.1439C13.4208 11.102 13.7691 9.88324 13.7478 8.64276C14.0111 8.54964 14.2502 8.39888 14.4478 8.20151L14.929 7.72026ZM7.49777 4.37526C6.63248 4.37526 5.78662 4.63184 5.06715 5.11258C4.34769 5.59331 3.78694 6.27659 3.4558 7.07602C3.12467 7.87544 3.03803 8.75511 3.20684 9.60378C3.37565 10.4524 3.79233 11.232 4.40418 11.8438C5.01604 12.4557 5.79559 12.8724 6.64425 13.0412C7.49292 13.21 8.37259 13.1234 9.17201 12.7922C9.97144 12.4611 10.6547 11.9003 11.1355 11.1809C11.6162 10.4614 11.8728 9.61555 11.8728 8.75026H10.6228C10.6228 9.36832 10.4395 9.97251 10.0961 10.4864C9.75274 11.0003 9.26468 11.4009 8.69366 11.6374C8.12264 11.8739 7.49431 11.9358 6.88812 11.8152C6.28193 11.6946 5.7251 11.397 5.28807 10.96C4.85103 10.5229 4.5534 9.9661 4.43282 9.35991C4.31224 8.75372 4.37413 8.12539 4.61065 7.55437C4.84717 6.98335 5.24771 6.49529 5.76162 6.15191C6.27552 5.80853 6.87971 5.62526 7.49777 5.62526V4.37526Z" fill="white"/>
</svg>
